<svg xmlns="http://www.w3.org/2000/svg" width="500" height="500" viewBox="0 0 56.69 56.69">
<style type="text/css">
svg { background-color: #ffffff; }
.st0{ fill:#593b26; }
</style>
<path class="st0" d="M37.787 41.604c4.854-.516 6.848-2.688 7.129-7.528.186-3.174-2.259-6.761-2.726-9.937-.446-3.029-1.382-5.478-3.706-7.594-.379-.345-.893.504-.563.805 3.388 3.084 3.278 6.905 4.236 11.026.373 1.604 1.335 3.218 1.836 4.765 1.907 5.893-2.678 7.155-5.984 7.507-.443.047-.706 1.008-.222.956zm-22.102 4.293c3.384-6.634 9.732-9.136 16.696-5.731 2.941 1.438 4.994 4.807 6.942 7.331.301.39.835-.451.563-.805-3.409-4.419-6.026-7.845-11.747-8.958-6.24-1.213-10.524 2.842-13.093 7.878-.284.556.36.831.639.285zm.266-7.609c-1.874-1.516-3.814-3.159-5.238-5.116-.287-.395-.825.445-.563.806 1.424 1.956 3.364 3.601 5.238 5.115.401.324.908-.527.563-.805zm-3.742-5.148c3.921.322 8.189-.251 11.643-2.187.392-.22.374-1.149-.165-.848-3.34 1.872-7.468 2.389-11.255 2.077-.447-.036-.732.916-.223.958zm4.263 3.47c2.694.284 5.708-.2 7.837-1.952.381-.313.159-1.123-.347-.707-1.949 1.604-4.817 1.961-7.268 1.703-.444-.047-.732.903-.222.956zm15.286-7.916c.449 0 .725-.957.223-.957-.45 0-.725.957-.223.957z"/><path class="st0" d="M32.073 27.759c-1.163-.784-2.585-.108-2.854 1.213-.275 1.35.615 2.71 1.899 3.109.455.141.847-.777.407-.914-.87-.27-1.543-.976-1.591-1.917-.052-.999 1.075-1.021 1.731-.578.377.253.803-.647.408-.913zm-16.722 1.745c3.921-.977 8.281-.61 11.851-2.753.383-.23.363-1.165-.165-.848-3.442 2.066-7.832 1.716-11.657 2.668-.426.106-.573 1.069-.029.933zm14.559-10.5c-.568.751-1.139 1.5-1.706 2.253-.333.443.113 1.043.509.518.566-.753 1.136-1.502 1.706-2.253.335-.442-.111-1.042-.509-.518zm2.188-1.406c-.193.47-.396.936-.604 1.4-.251.564-.535 1.45-.955 1.86-.348.339-.123 1.166.347.707.501-.488.779-1.262 1.067-1.883.275-.594.535-1.195.785-1.8.235-.569-.403-.859-.64-.284zm5.547-3.649a56.198 56.198 0 00-1.965 2.619c-.797 1.121-1.818 2.426-2.102 3.806-.133.646.613.574.725.032.263-1.278 1.303-2.5 2.04-3.54a51.939 51.939 0 011.811-2.399c.347-.435-.099-1.029-.509-.518zm-1.346-3.016c.023-.389.064-.777.117-1.163.072-.514.123-1.218.459-1.638.169-.212.186-.855-.24-.725-1.539.47-2.822 1.76-3.379 3.247-.215.573.42.869.639.285.451-1.2 1.468-2.22 2.711-2.6l-.24-.725c-.716.896-.757 2.434-.824 3.533-.042.656.727.268.757-.214zm-5.332.366c.338-.555.826-1.123 1.438-1.376a.639.639 0 00.393-.574c.006-.185-.135-.454-.365-.359-.828.344-1.51 1.029-1.974 1.791-.112.186-.205.48-.026.662.165.169.431.024.534-.144zm-2.616-1.158c-.021.199.006-.011.019-.066.038-.165.104-.319.173-.473.307-.678.859-1.218 1.43-1.679.384-.311.162-1.119-.347-.707-.945.765-1.901 1.875-2.033 3.14-.021.21.142.422.365.359.249-.071.369-.34.393-.574z"/><path class="st0" d="M26.708 10.879a3.586 3.586 0 011.346-1.546c.376-.238.354-1.176-.165-.848a4.888 4.888 0 00-1.821 2.109c-.25.566.39.85.64.285zm-15.104.791c-.96.314-1.899.964-2.4 1.852-.125.222-.219.849.24.725.66-.178 1.349-.339 2.035-.353.449-.009.722-.967.223-.957-.75.016-1.506.183-2.229.377l.24.725c.392-.695 1.11-1.19 1.863-1.437.413-.135.554-1.104.028-.932zm-1.833 2.915c-1.861 1.841-3.801 4.069-4.574 6.61-.117.386.234.622.536.37.549-.459 1.161-.825 1.797-1.148.403-.205.386-1.127-.165-.848a10.41 10.41 0 00-1.979 1.289l.536.37c.688-2.264 2.541-4.298 4.196-5.936.345-.341.12-1.168-.347-.707zM8.229 20.13c-.961 1.309-2.034 2.702-2.624 4.227-.104.27 0 .822.402.566l.67-.426-.402-.566a8.766 8.766 0 00-.485 2.503c-.032.656.734.269.758-.215a7.09 7.09 0 01.367-2.004c.094-.266.006-.825-.402-.566l-.67.426.402.566c.557-1.441 1.583-2.756 2.493-3.995.327-.444-.119-1.046-.509-.516z"/><path class="st0" d="M7.498 24.424a4.984 4.984 0 00-.917 2.681c-.019.656.744.271.758-.215.02-.691.267-1.384.667-1.948.32-.45-.126-1.056-.508-.518zm.731 1.157c-.548.791-.995 1.686-1.235 2.618-.165.641.588.563.725.032.196-.761.572-1.488 1.019-2.133.313-.452-.133-1.059-.509-.517zm.609 1.157c-.685.988-1.008 2.29-.725 3.465.103.427.57.23.69-.079.151-.391.355-.999.737-1.211.393-.219.375-1.147-.165-.848-.617.342-.968 1.144-1.211 1.773.23-.026.46-.054.69-.079-.207-.855-.009-1.78.493-2.504.313-.451-.133-1.059-.509-.517zm29.369 3.003l-.305 1.867c-.105.646.635.581.725.031l.305-1.866c.105-.646-.636-.582-.725-.032zm1.749.124v1.259c0 .657.758.274.758-.215V29.65c0-.657-.758-.275-.758.215zm1.341-.263v.893c0 .657.758.275.758-.215v-.893c0-.657-.758-.275-.758.215z"/><g fill="#593B26"><path d="M24.417 44.984c.143 1.334.506 2.766 1.259 3.889.315.469.918-.281.674-.646-.72-1.072-1.057-2.41-1.192-3.686-.066-.605-.787.008-.741.443z"/><path d="M27.154 44.409c-.728.743-1.598 1.528-2.094 2.451-.277.516-.048.923.519.94.694.021 1.443-.227 2.125-.02.456.139.847-.779.406-.913-.549-.167-1.123-.105-1.686-.06a6.14 6.14 0 01-.705.033c-.244-.008-.107.485-.046.352-.004.01.094-.135.12-.17.496-.688 1.116-1.303 1.708-1.907.338-.344.112-1.174-.347-.706z"/><path d="M31.557 47.501a10.925 10.925 0 01-.531-.5c-.287-.286-.363-.561-.567-.896-.553-.908-1.67-.135-2.015.572-.269.552-.358 1.689.302 1.998.884.414 1.655-1.027 1.845-1.647.059-.188-.015-.483-.25-.494-.256-.011-.41.255-.475.463-.07.231-.715 1.18-.838.565-.033-.168.003-.367.025-.534.021-.151.452-.446.604-.396.201.066.277.424.342.596.059.155.208.3.316.421.209.234.443.45.68.657.384.34.896-.51.562-.805zm.007-3.344c.12 1.67.234 3.435.777 5.027.064.188.28.167.42.101.821-.393 1.426-1.166 1.432-2.09.008-1.025-1.039-1.342-1.879-1.205-.434.07-.587 1.022-.029.932.363-.059.758 0 1.035.252.537.49-.389 1.104-.725 1.264l.42.102c-.492-1.441-.585-3.086-.693-4.597-.047-.653-.793-.279-.758.214zm3.574 2.202c.089.76.221 1.533.236 2.298.014.656.768.276.758-.215-.018-.842-.157-1.692-.254-2.526-.027-.231-.269-.313-.452-.202-.221.133-.317.401-.288.645zm.161-1.353a6.774 6.774 0 01-.67-.727 1.282 1.282 0 01-.127-.201c-.105-.199-.21-.02-.313.539.047.031.09.067.13.107.106.098.199.213.284.329.18.245.537-.081.601-.261.046-.132.104-.262.177-.381.031-.052.095-.17.169-.15-.126-.033.002-.277-.091-.07-.092.204-.24.388-.373.564-.09.119-.205.258-.241.299-.157.178-.278.442-.163.677.101.206.37.188.51.03.408-.463 1.25-1.35 1.051-2.035-.133-.456-.586-.52-.958-.273-.349.231-.584.669-.72 1.056l.602-.261c-.169-.229-.374-.457-.639-.574-.363-.162-.708.223-.771.547-.12.617.58 1.213.979 1.591.371.35.889-.499.563-.806zM18.74 48.509c.091-.808.198-1.612.331-2.413.038-.229.082-.456.131-.682.104-.473-.216-.008-.124.081.274.262.47.634.65.966.108.197.366.196.51.03.296-.341.598-.678.908-1.007a7.91 7.91 0 01.203-.207c.246-.247-.122.155-.231-.18.062.189.078.398.103.594.122.953.204 1.959.169 2.922-.023.656.74.27.758-.215a16.994 16.994 0 00-.254-3.59c-.257-1.4-1.635.553-2.002.976l.51.03c-.361-.662-1.393-2.201-1.849-.717-.355 1.153-.436 2.43-.572 3.626-.072.65.706.258.759-.214z"/><path d="M24.546 46.699c-.41-.336-.948-.533-1.463-.336-.568.219-.828.836-.895 1.396-.165 1.386 1.468 1.613 2.36.946.199-.149.337-.39.288-.646-.041-.207-.265-.342-.453-.202-.403.302-1.299.503-1.437-.163-.137-.662.739-.436 1.037-.191.399.327.907-.523.563-.804z"/></g><g fill="#593B26"><path d="M44.526 23.888c.079.382.211 1.785.724 1.824.3.023.656-.245.901-.385a9.229 9.229 0 001.193-.78c.78-.619-.066-1.514-.604-1.975-.3-.257-.629-.075-.943.068-.388.176-.92.388-1.155.767-.115.185-.205.481-.027.661.168.17.432.023.535-.144.037-.059.457-.267.619-.347.137-.067.277-.125.421-.175.085-.016.079-.025-.02-.029.032.01.098.083.12.104.229.214.441.471.609.735.215.334.4-.629.143-.409-.084.072-.184.131-.276.193-.253.17-.516.329-.78.482a8.365 8.365 0 01-.395.215l-.083.04c-.187.079.03-.075.126.094-.223-.395-.277-.945-.368-1.385-.123-.602-.83.007-.74.446zm.804 2.915c.971-.299 2.11-.644 2.875-1.336.363-.328.141-1.147-.346-.707-.646.584-1.682.858-2.5 1.11-.418.129-.56 1.096-.029.933zm2.119-5.11c.32.166.652.326 1 .426.074.021.152.036.229.043l-.046-.233c-.064.037-.129.07-.196.102-.175.086-.362.154-.546.221-.407.148-.545 1.121-.027.933.684-.248 1.576-.584 1.49-1.477-.042-.441-.336-.442-.678-.558a6.083 6.083 0 01-.819-.369c-.415-.215-.829.695-.407.912z"/><path d="M48.324 22.513c-.111.396-.171.82-.113 1.229.088.629.699.588 1.146.375.451-.214 1.007-.942.717-1.462-.283-.509-.921-.829-1.47-.549-.402.206-.386 1.128.165.848.219-.112.494.31.61.179-.06.067-.397.292-.429.165-.059-.229.036-.531.098-.752.181-.638-.575-.558-.724-.033z"/><path d="M48.553 25.011c.815-.163 1.675-.42 2.37-.887.367-.247.343-1.189-.165-.848-.639.43-1.428.652-2.178.802-.43.086-.581 1.043-.027.933z"/><path d="M49.944 25.591a14.846 14.846 0 01-.001-.517 8.3 8.3 0 01.031-.57c.02-.217.116-.07-.188.155l-.419-.101c.411.655 1.071 1.172 1.861 1.223.447.028.73-.924.223-.957-.586-.037-1.135-.472-1.41-.911-.092-.145-.267-.214-.42-.101-.557.413-.447 1.378-.435 1.994.015.656.769.277.758-.215z"/></g>
</svg>

